<mxfile host="65bd71144e">
    <diagram name="Page-1" id="_vc7fxBdNKI2W8YhI8VA">
        <mxGraphModel dx="774" dy="581" grid="1" gridSize="10" guides="1" tooltips="1" connect="1" arrows="1" fold="1" page="1" pageScale="1" pageWidth="827" pageHeight="1169" math="0" shadow="0">
            <root>
                <mxCell id="0"/>
                <mxCell id="1" parent="0"/>
                <mxCell id="eRehIIeIVOPW1y23kRkx-9" style="edgeStyle=orthogonalEdgeStyle;rounded=0;orthogonalLoop=1;jettySize=auto;html=1;exitX=0.5;exitY=1;exitDx=0;exitDy=0;entryX=0.5;entryY=0;entryDx=0;entryDy=0;" parent="1" source="eRehIIeIVOPW1y23kRkx-2" target="eRehIIeIVOPW1y23kRkx-8" edge="1">
                    <mxGeometry relative="1" as="geometry"/>
                </mxCell>
                <mxCell id="eRehIIeIVOPW1y23kRkx-2" value="User level interfaces and events." style="rounded=0;whiteSpace=wrap;html=1;" parent="1" vertex="1">
                    <mxGeometry x="200" y="450" width="226" height="60" as="geometry"/>
                </mxCell>
                <mxCell id="eRehIIeIVOPW1y23kRkx-4" style="edgeStyle=orthogonalEdgeStyle;rounded=0;orthogonalLoop=1;jettySize=auto;html=1;" parent="1" source="eRehIIeIVOPW1y23kRkx-3" target="eRehIIeIVOPW1y23kRkx-2" edge="1">
                    <mxGeometry relative="1" as="geometry"/>
                </mxCell>
                <mxCell id="eRehIIeIVOPW1y23kRkx-3" value="IDB" style="shape=cylinder3;whiteSpace=wrap;html=1;boundedLbl=1;backgroundOutline=1;size=15;" parent="1" vertex="1">
                    <mxGeometry x="283" y="290" width="60" height="80" as="geometry"/>
                </mxCell>
                <mxCell id="eRehIIeIVOPW1y23kRkx-8" value="Program #2&lt;div&gt;Is a web browser, it uses an HTML parser component.&lt;/div&gt;" style="rounded=0;whiteSpace=wrap;html=1;" parent="1" vertex="1">
                    <mxGeometry x="253" y="570" width="120" height="60" as="geometry"/>
                </mxCell>
                <mxCell id="eRehIIeIVOPW1y23kRkx-10" value="&lt;h1 style=&quot;margin-top: 0px;&quot;&gt;System Component/Call Model/Interface&lt;/h1&gt;&lt;p&gt;XPCOM is a standardized way of sharing code within DLLs in NewOS.&lt;/p&gt;&lt;p&gt;All classes are based upon&amp;nbsp;&lt;span style=&quot;color: rgb(78, 201, 176); background-color: rgb(31, 31, 31); font-family: Consolas, &amp;quot;Courier New&amp;quot;, monospace; font-size: 14px;&quot;&gt;IUnknown&lt;/span&gt;&lt;/p&gt;&lt;p&gt;It is also used to register and call code using&amp;nbsp;&lt;span style=&quot;color: rgb(78, 201, 176); background-color: rgb(31, 31, 31); font-family: Consolas, &amp;quot;Courier New&amp;quot;, monospace; font-size: 14px;&quot;&gt;IEventListener&lt;/span&gt;&lt;/p&gt;" style="text;html=1;whiteSpace=wrap;overflow=hidden;rounded=0;" parent="1" vertex="1">
                    <mxGeometry x="450" y="240" width="320" height="240" as="geometry"/>
                </mxCell>
            </root>
        </mxGraphModel>
    </diagram>
</mxfile>
